<svg width="2427" height="482" viewBox="0 0 2427 482" fill="none" xmlns="http://www.w3.org/2000/svg">
<path fill-rule="evenodd" clip-rule="evenodd" d="M0 147.872H196.531V201.269H69.3882V247.428H191.343V302.9H69.3882V350.629H198.593V404.427H0V147.872ZM501.969 147.872H571.954V405.063H502.073L501.969 147.872ZM827.095 155.654L822.426 210.594C765.917 177.923 679.304 188.299 677.748 273.861C676.179 359.435 766.941 371.873 824.501 342.834L828.119 398.837C726.488 430.458 605.143 398.306 605.675 273.848C606.194 152.01 728.577 118.301 827.095 155.654ZM1032.96 152.01L1028.31 204.9C993.017 185.718 926.132 185.199 926.132 215.276C926.132 259.866 1045.41 227.727 1045.41 323.133C1045.41 416.982 931.826 418.02 858.209 396.269L863.384 340.24C909.544 361.523 974.846 366.154 974.846 329.345C974.846 288.893 855.071 311.719 855.071 220.983C855.084 146.575 948.427 126.602 1032.96 152.01ZM1244.01 152.01L1239.35 204.9C1204.09 185.718 1137.19 185.199 1137.19 215.276C1137.19 259.866 1256.48 227.727 1256.48 323.133C1256.48 416.982 1142.91 418.02 1069.27 396.269L1074.45 340.24C1120.6 361.523 1185.94 366.154 1185.94 329.345C1185.94 288.893 1066.17 311.719 1066.17 220.983C1066.15 146.575 1159.5 126.602 1244.01 152.01V152.01ZM1566.02 147.872H1654.71L1739.25 313.821V147.872H1803.54V405.063H1720.06L1630.87 236.002V405.063H1566.02V147.872V147.872ZM2062.8 306.013C2054.64 281.461 2066.63 255.068 2090.82 245.872L2361.48 146.303C2386.06 136.978 2413.62 148.806 2423.22 173.28C2433.02 198.299 2420.03 227.04 2394.67 236.002L2123.5 336.09C2098.37 344.261 2071.1 331.096 2062.8 306.013V306.013ZM2062.78 162.891C2054.62 138.327 2066.63 111.959 2090.79 102.725L2361.46 3.16871C2386.03 -6.13062 2413.61 5.68486 2423.17 30.1458C2432.97 55.1905 2420 83.9184 2394.67 92.8935L2123.45 192.968C2098.34 201.126 2071.1 187.949 2062.78 162.891V162.891ZM2062.78 449.043C2054.67 424.466 2066.6 398.098 2090.77 388.877L2361.43 289.321C2385.98 279.969 2413.54 291.85 2423.17 316.298C2433.02 341.304 2419.98 370.057 2394.65 379.02L2123.45 479.107C2098.29 487.213 2070.99 474.114 2062.78 449.043V449.043ZM1404.77 139.559C1477.45 139.598 1532.84 182.087 1532.84 274.911C1532.84 363.573 1477.17 409.174 1404.77 409.213C1332.55 409.239 1277.22 364.61 1277.22 274.911C1277.22 182.087 1332.22 139.507 1404.77 139.559ZM1348.78 274.911C1348.78 314.119 1365.57 358.449 1404.76 358.385C1443.96 358.359 1460.43 314.132 1460.76 274.911C1461.03 239.426 1443.96 191.451 1404.76 191.412C1365.57 191.373 1348.73 235.704 1348.78 274.911ZM247.45 147.872H373.374C407.588 147.872 455.291 162.904 455.291 216.327C455.291 250.541 439.727 269.749 410.169 278.53C410.701 278.024 426.913 284.509 433.514 304.469C433.722 305.131 469.557 404.829 469.946 405.063H395.656L369.21 327.802C365.151 315.922 356.331 308.088 343.816 308.088C332.921 308.088 315.801 307.323 315.801 308.088V405.063H247.359L247.45 147.872V147.872ZM314.244 256.209H352.622C369.872 256.533 385.423 246.157 385.267 227.195C385.163 210.374 371.415 198.442 353.647 198.675H314.231V256.209H314.244Z" fill="#63ABFF"/>
</svg>
