<svg width="100" height="100" viewBox="0 0 100 100" fill="none" xmlns="http://www.w3.org/2000/svg">
<path d="M99.8 49.9C99.8 22.34 77.4601 4.44042e-05 49.9 4.44042e-05C49.1486 4.44042e-05 48.4009 0.0190197 47.6571 0.0531757L37.4501 28.1066H46.3402C51.6287 28.1066 54.4788 32.1788 52.6685 37.1523L40.0783 71.7523L29.507 71.7504L43.0176 34.6646H35.0687L21.5581 71.7504H10.9831L26.8694 28.1066H26.8713L36.4274 1.84257C15.4138 7.7212 0 27.0098 0 49.9C0 73.4696 16.3436 93.2212 38.3154 98.4452L47.5755 72.9971H47.5831L63.9191 28.1066H83.39C88.6841 28.1066 91.5324 32.1788 89.7221 37.1523L78.6593 67.5416C77.8168 69.8566 75.1128 71.7504 72.6498 71.7504H58.6155L48.418 99.7773C48.9095 99.7906 49.4047 99.8 49.9 99.8C77.4601 99.8 99.8 77.4582 99.8 49.9Z" fill="#63ABFF"/>
<path d="M80.0938 34.638H72.1487L61.0215 65.1677H68.9665L80.0938 34.638Z" fill="#63ABFF"/>
</svg>
