<svg width="513" height="109" viewBox="0 0 513 109" fill="none" xmlns="http://www.w3.org/2000/svg">
<path d="M219.466 42.7368L219.467 42.7321L216.19 53.5536L219.466 42.7368Z" fill="#63ABFF"/>
<path d="M236.312 66.23L232.702 66.209L236.312 66.23Z" fill="#63ABFF"/>
<path d="M235.384 82.3901H235.387L213.763 82.4635L235.384 82.3901Z" fill="#63ABFF"/>
<path d="M239.917 66.2498L236.306 66.2296L239.917 66.2498Z" fill="#63ABFF"/>
<path d="M237.28 81.0167L241.046 67.6248L237.28 81.0196V81.0167Z" fill="#63ABFF"/>
<path d="M316.899 19.3444L309.883 50.0955L316.899 19.3444Z" fill="#63ABFF"/>
<path d="M298.861 19.3444L293.533 42.3168L298.861 19.3425V19.3444Z" fill="#63ABFF"/>
<path d="M315.697 17.9604H300.69C299.858 17.9604 299.032 18.5833 298.855 19.3414L293.527 42.3158L288.2 65.291C288.024 66.0492 287.199 66.6712 286.365 66.6712H277.262H275.745C265.238 66.6712 266.452 59.8948 268.606 50.613C268.627 50.52 268.648 50.4289 268.668 50.3331L268.904 49.1625C268.92 49.0874 268.935 49.0122 268.948 48.9436L269.429 46.5612L269.943 44.0087C270.099 43.2392 270.336 42.1139 270.492 41.4065L272.912 30.3763L275.337 19.3461C275.504 18.5852 274.958 17.9604 274.124 17.9604H258.722C257.892 17.9604 257.065 18.5852 256.896 19.3443L253.583 33.9903L250.272 48.6336C250.269 48.6411 250.267 48.6505 250.267 48.6561L249.959 50.0174C246.144 66.2502 247.155 81.7315 267.887 82.2153C268.227 82.2247 268.489 82.2275 268.489 82.2275H301.03C301.864 82.2275 302.687 81.6038 302.86 80.8447L309.88 50.0955L316.896 19.3433C317.07 18.5833 316.531 17.9604 315.697 17.9604Z" fill="#63ABFF"/>
<path d="M375.56 66.83C376.392 66.83 376.938 67.4519 376.771 68.2128L375.312 74.851" fill="#63ABFF"/>
<path d="M373.859 81.4939L375.314 74.8521L373.857 81.4958C373.857 81.4939 373.859 81.4939 373.859 81.4939Z" fill="#63ABFF"/>
<path d="M372.031 82.8898C372.034 82.8898 372.038 82.8879 372.04 82.8879C367.622 82.9209 354.351 83.016 344.378 83.016C356.516 83.016 372.031 82.8917 372.031 82.8917V82.8898Z" fill="#63ABFF"/>
<path d="M335.427 58.28C335.415 57.5529 336.303 56.2996 337.135 56.2996L335.261 56.2714C334.418 64.1882 335.427 58.28 335.427 58.28Z" fill="#63ABFF"/>
<path d="M345.745 83.012C345.65 83.012 345.552 83.012 345.456 83.0139C345.551 83.012 345.65 83.012 345.745 83.012Z" fill="#63ABFF"/>
<path d="M375.56 66.83C376.392 66.83 376.938 67.4519 376.771 68.2128L375.313 74.851L375.076 75.9333" fill="#63ABFF"/>
<path d="M348.04 83.0103C347.921 83.0103 347.806 83.0102 347.688 83.0122C347.806 83.0102 347.921 83.0103 348.04 83.0103Z" fill="#63ABFF"/>
<path d="M348.95 83.0083C348.645 83.0083 348.341 83.0102 348.041 83.0102C348.342 83.0102 348.646 83.0083 348.95 83.0083Z" fill="#63ABFF"/>
<path d="M352.79 82.998C351.577 83.0018 350.365 83.0065 349.169 83.0085C350.365 83.0065 351.578 83.0018 352.79 82.998Z" fill="#63ABFF"/>
<path d="M372.043 82.8879C368.805 82.9116 360.813 82.9684 352.844 82.9968C360.809 82.9703 368.803 82.9126 372.043 82.8879Z" fill="#63ABFF"/>
<path d="M373.859 81.4976L375.078 75.9342L373.857 81.5005C373.857 81.4986 373.859 81.4986 373.859 81.4958V81.4976Z" fill="#63ABFF"/>
<path d="M127.084 58.4463L129.414 48.8141L126.749 59.8245L124.192 71.0396L126.434 61.2083C126.607 60.4473 126.9 59.2044 127.084 58.4463Z" fill="#63ABFF"/>
<path d="M154.982 17.799H138.502C137.669 17.799 136.837 18.4199 136.651 19.1753L135.089 25.6039L133.526 32.0354C133.342 32.7917 133.873 33.4117 134.707 33.4117H151.313C152.146 33.4117 152.974 32.7907 153.153 32.0326L154.663 25.603L156.174 19.179V19.177C156.352 18.4198 155.815 17.799 154.982 17.799Z" fill="#63ABFF"/>
<path d="M151.396 39.1856V39.1837L146.564 60.0274L151.396 39.1856Z" fill="#63ABFF"/>
<path d="M103.524 108.247C103.524 108.247 111.831 108.346 117.111 108.346C113.101 108.346 106.475 108.278 103.517 108.246C103.52 108.246 103.522 108.247 103.524 108.247Z" fill="#63ABFF"/>
<path d="M131.745 39.1829L129.412 48.8142L131.745 39.1829Z" fill="#63ABFF"/>
<path d="M150.204 37.8037H133.595C132.763 37.8037 131.93 38.4246 131.747 39.1828L129.414 48.815L127.084 58.4472C126.9 59.2044 126.606 60.4473 126.433 61.2073L124.191 71.0396L121.951 80.871C121.776 81.6282 121.419 82.8542 121.153 83.5907C121.153 83.5907 118.05 92.1971 112.833 92.0993C112.611 92.0947 112.396 92.0928 112.182 92.0881C109.656 92.042 107.668 92.0092 107.668 92.0092H107.664C106.834 91.9979 105.996 92.6039 105.803 93.3573L104.079 100.109L102.359 106.855C102.165 107.61 102.689 108.233 103.515 108.245C106.474 108.277 113.099 108.346 117.109 108.346C130.139 108.346 137.009 101.617 141.411 82.2539L146.564 60.0292L151.396 39.1847C151.573 38.4246 151.035 37.8046 150.204 37.8037Z" fill="#63ABFF"/>
<path d="M386.143 82.2275C385.309 82.2275 384.768 81.6047 384.945 80.8438L397.438 26.2906" fill="#63ABFF"/>
<path d="M403.505 80.8419L408.56 57.5566L403.505 80.8419Z" fill="#63ABFF"/>
<path d="M385.125 81.5362C385.024 81.1566 385.083 80.2247 385.26 79.4637L391.191 53.5686L384.944 80.8457C384.768 81.6057 385.308 82.2285 386.141 82.2285H387.659C386.824 82.2276 385.228 81.9166 385.125 81.5362Z" fill="#63ABFF"/>
<path d="M402.52 81.9166C402.065 82.0876 401.012 82.2276 400.178 82.2276H401.695C402.528 82.2276 403.346 81.6047 403.509 80.8419L403.813 79.4581C403.646 80.219 402.973 81.7447 402.52 81.9166Z" fill="#63ABFF"/>
<path d="M406.037 69.2003L408.268 58.9246C408.266 58.9311 408.266 58.9396 408.264 58.9443L406.037 69.2003Z" fill="#63ABFF"/>
<path d="M455.335 29.9451L456.024 32.5963C456.213 33.3554 455.687 33.9707 454.857 33.9726" fill="#63ABFF"/>
<path d="M403.809 79.46L406.033 69.2021L403.809 79.46Z" fill="#63ABFF"/>
<path d="M454.651 27.2301L455.332 29.9451L454.651 27.2301Z" fill="#63ABFF"/>
<path d="M408.264 58.9235C408.43 58.1635 408.706 56.93 408.877 56.1784L411.26 45.774L408.562 57.5585L408.264 58.9235Z" fill="#63ABFF"/>
<path d="M397.644 25.3962C397.478 26.1299 397.266 27.0581 397.123 27.6716L391.194 53.5667L397.44 26.2896L397.644 25.3962Z" fill="#63ABFF"/>
<path d="M456.02 32.5963L455.33 29.9452L454.649 27.2301L454.303 25.8557C452.956 20.9706 448.995 18.1503 440.396 18.1503L427.01 18.1372L414.68 18.124H413.622H400.807C399.975 18.124 399.151 18.744 398.98 19.505L398.366 22.2069L397.642 25.3982L397.44 26.2926L391.193 53.5696L385.263 79.4647C385.087 80.2266 385.029 81.1576 385.129 81.5371C385.23 81.9176 386.828 82.2285 387.663 82.2285H400.176C401.01 82.2285 402.065 82.0886 402.518 81.9176C402.971 81.7466 403.644 80.22 403.81 79.46L406.035 69.2011L408.261 58.9451C408.262 58.9414 408.263 58.932 408.265 58.9254L408.563 57.5604L411.261 45.7759L413.644 35.3677C413.82 34.6114 414.64 33.9933 415.472 33.9914L454.851 33.9726C455.683 33.9698 456.209 33.3544 456.02 32.5963Z" fill="#63ABFF"/>
<path d="M506.715 8.6271C505.88 8.63273 504.517 8.63743 503.683 8.63743H491.079C490.244 8.63743 489.177 9.16258 488.707 9.80329L460.835 47.868C460.364 48.5106 459.826 48.4138 459.641 47.6576L457.591 39.272C457.406 38.5139 456.571 37.8957 455.739 37.8957H437.82C436.986 37.8957 436.493 38.5054 436.721 39.2523L444.749 65.4715C444.979 66.2184 444.996 67.4472 444.789 68.1987L441.289 80.8889C441.082 81.6414 441.595 82.2577 442.429 82.2577H460.137C460.969 82.2577 461.821 81.6414 462.027 80.8889L465.53 68.1987C465.736 67.4462 466.316 66.3217 466.817 65.7007L512.065 9.71874C512.568 9.09777 512.296 8.59422 511.463 8.59891L506.715 8.6271Z" fill="#63ABFF"/>
<path d="M364.361 41.4638V41.4478C364.256 42.2905 363.422 42.9087 362.588 42.9087H339.871C339.086 42.9087 338.687 42.4108 338.802 41.7964C338.809 41.7785 338.811 41.7625 338.823 41.7475C338.823 41.7475 338.815 41.7494 338.808 41.7531C338.813 41.7287 338.813 41.7071 338.821 41.6827C338.821 41.6827 338.863 41.5333 338.925 41.3219C341.094 35.9445 345.514 32.4159 353.82 32.4159C363.172 32.4178 364.995 36.6763 364.361 41.4638ZM357.695 17.022C328.536 17.022 321.626 33.5207 317.749 50.1725C313.873 67.1447 314.207 83.0139 344.381 83.0139H345.451C345.548 83.012 345.644 83.012 345.74 83.012H346.585H346.895H347.686C347.805 83.0101 347.922 83.0102 348.039 83.0102C348.342 83.0102 348.645 83.0083 348.949 83.0083H349.163C350.357 83.0064 351.57 83.0017 352.782 82.9979H352.844C360.813 82.9688 368.805 82.9115 372.045 82.888C372.87 82.8768 373.68 82.2548 373.852 81.5005L375.073 75.9351L375.31 74.851L376.767 68.2138C376.935 67.4519 376.389 66.83 375.556 66.83H348.428C337.64 66.83 334.435 64.1572 335.615 56.3006H378.979L378.975 56.3043C378.987 56.3043 378.996 56.3006 379.007 56.3006C379.695 56.2884 380.333 55.8459 380.584 55.2568C380.631 55.1432 380.672 55.0257 380.689 54.9045L380.684 54.9083C387.121 32.2694 385.276 17.023 357.692 17.023L357.695 17.022Z" fill="#63ABFF"/>
<path d="M219.876 41.3783L219.466 42.7321C219.466 42.7368 219.465 42.7368 219.465 42.7368L216.19 53.5536L212.917 64.3695C212.69 65.1164 211.824 65.727 210.989 65.727H193.658C180.513 65.727 177.311 56.1437 180.513 42.0059C183.713 27.5467 189.988 18.558 202.927 17.6468C220.609 16.4048 224.145 27.9967 219.876 41.3783ZM231.761 64.8956C231.761 64.8956 239.932 46.4006 241.789 35.7181C244.319 21.4177 236.639 0.680298 206.972 0.680298C177.473 0.680298 164.665 20.4802 159.777 42.0049C154.89 63.6847 161.294 82.6983 190.623 82.5433L213.763 82.4634L235.387 82.3901C236.221 82.3826 237.072 81.7682 237.284 81.0176L241.051 67.6229C241.261 66.8704 240.752 66.2522 239.919 66.2484L236.308 66.2287L232.699 66.209C231.99 66.2033 231.586 65.7778 231.67 65.2104C231.687 65.108 231.711 65.0027 231.761 64.8956Z" fill="#63ABFF"/>
<path d="M377.787 52.5164C377.787 53.0284 377.343 53.4437 376.792 53.4437C376.243 53.4437 375.799 53.0284 375.799 52.5164C375.799 52.0054 376.243 51.592 376.792 51.592C377.342 51.592 377.787 52.0054 377.787 52.5164Z" fill="#63ABFF"/>
<path d="M6.51874 28.4702C-1.6264 39.3829 -0.61153 53.5799 5.60969 65.1756C5.75784 65.4537 5.91305 65.727 6.06623 66.0014C6.16399 66.1742 6.2557 66.3518 6.35749 66.5228C6.41494 66.6252 6.47944 66.7257 6.5389 66.8234C6.64472 67.0084 6.75356 67.1841 6.86341 67.3645C7.05691 67.6821 7.25545 67.9977 7.45701 68.3133C7.56888 68.4871 7.67974 68.66 7.79564 68.8338C8.02038 69.1711 8.25016 69.5065 8.48498 69.839C8.58274 69.9809 8.67848 70.1237 8.77927 70.2608C9.10378 70.7118 9.43535 71.1627 9.777 71.6052C9.78607 71.6165 9.79615 71.6277 9.80522 71.639C9.85964 71.7104 9.9191 71.78 9.97352 71.8514C10.2688 72.2318 10.5752 72.6076 10.8826 72.9796C10.9964 73.1149 11.1113 73.2502 11.2252 73.3864C11.5003 73.7096 11.7805 74.0299 12.0657 74.3494C12.1726 74.4687 12.2794 74.5889 12.3872 74.7063C12.7692 75.1253 13.1602 75.5443 13.5593 75.9539C13.5664 75.9614 13.5754 75.9699 13.5825 75.9765C13.5986 75.9943 13.6127 76.0047 13.6268 76.0216C14.0158 76.418 14.4139 76.806 14.8181 77.1931C14.943 77.3124 15.071 77.4326 15.199 77.5519C15.5114 77.8451 15.8289 78.1316 16.1494 78.4209C16.2794 78.5355 16.4084 78.6539 16.5384 78.7648C16.9667 79.1405 17.3991 79.5098 17.8405 79.8696C17.8486 79.8771 17.8536 79.8827 17.8617 79.8856C17.9362 79.9476 18.0138 80.0077 18.0884 80.065C18.4774 80.3797 18.8735 80.6916 19.2716 80.9979C19.4338 81.12 19.5981 81.2412 19.7614 81.3624C20.0869 81.6057 20.4165 81.8452 20.748 82.081C20.9234 82.206 21.0988 82.3309 21.2751 82.4549C21.641 82.7048 22.0098 82.9528 22.3817 83.1943C22.5178 83.2864 22.6488 83.3737 22.7848 83.4611C22.8221 83.4855 22.8564 83.5118 22.8947 83.5353C23.2484 83.7608 23.6082 83.9806 23.969 84.1976C24.1242 84.2944 24.2784 84.393 24.4346 84.487C24.9879 84.813 25.5493 85.1352 26.1177 85.448C26.2719 85.5298 26.4281 85.6106 26.5823 85.6923C26.9995 85.9168 27.4198 86.1376 27.8451 86.3527C28.0748 86.4683 28.3117 86.5773 28.5435 86.6872C28.8448 86.8347 29.1431 86.9831 29.4475 87.125C29.517 87.1579 29.5886 87.1888 29.6571 87.2198C29.779 87.2753 29.903 87.3288 30.027 87.3871C30.5006 87.5985 30.9773 87.8042 31.4591 88.0052C31.5619 88.0475 31.6606 88.0898 31.7624 88.1311C32.3137 88.3556 32.871 88.5736 33.4334 88.7793C33.5684 88.8301 33.7045 88.878 33.8405 88.9287C34.3606 89.1147 34.8876 89.2998 35.4167 89.4727C35.4843 89.4943 35.5488 89.5149 35.6153 89.5356C36.1968 89.7254 36.7833 89.9011 37.3739 90.072C37.515 90.1106 37.6561 90.1528 37.7982 90.1914C38.3999 90.3605 38.9935 90.5615 39.6143 90.6686C79.0036 97.3641 90.4453 68.6037 90.4453 68.6037C80.8358 80.2735 63.7786 83.3521 47.6173 79.925C47.0046 79.7963 46.411 79.6187 45.8133 79.4534C45.6612 79.4111 45.513 79.3688 45.3628 79.3256C44.7793 79.1584 44.2018 78.9837 43.6264 78.7986C43.5478 78.7732 43.4682 78.7451 43.3875 78.7188C42.8725 78.5496 42.3636 78.3721 41.8557 78.1898C41.7126 78.1363 41.5694 78.0865 41.4263 78.0329C40.87 77.8281 40.3177 77.6149 39.7725 77.3913C39.6596 77.3472 39.5528 77.3002 39.4419 77.2541C38.9733 77.0568 38.5097 76.8577 38.0461 76.6501C37.9131 76.59 37.7791 76.5308 37.644 76.4697C37.2822 76.3053 36.9224 76.1305 36.5657 75.9586C36.3258 75.8412 36.0829 75.7294 35.8461 75.6073C35.4087 75.3893 34.9804 75.162 34.5531 74.9309C34.4079 74.8548 34.2618 74.7824 34.1157 74.7045C33.5483 74.3926 32.9869 74.0694 32.4316 73.7425C32.2784 73.6513 32.1283 73.5546 31.9771 73.4606C31.575 73.2182 31.1739 72.9721 30.7798 72.7175C30.6488 72.6367 30.5218 72.5465 30.3938 72.4648C30.0129 72.214 29.6359 71.9594 29.261 71.702C29.0917 71.5855 28.9244 71.4643 28.7591 71.3478C28.4165 71.1026 28.0748 70.8574 27.7372 70.6028C27.585 70.4901 27.4318 70.3764 27.2817 70.2627C26.8524 69.933 26.4281 69.6032 26.0088 69.2641C25.9655 69.2275 25.9171 69.1927 25.8697 69.1551C25.4172 68.7831 24.9708 68.4026 24.5314 68.0203C24.4034 67.9066 24.2794 67.7967 24.1544 67.682C23.8279 67.3936 23.5074 67.1024 23.193 66.8037C23.067 66.6862 22.94 66.5697 22.8161 66.4532C22.415 66.07 22.0219 65.6829 21.6359 65.2893C21.6168 65.2695 21.5966 65.2526 21.5775 65.231C21.1693 64.8158 20.7712 64.3902 20.3802 63.9609C20.2744 63.8434 20.1716 63.7298 20.0668 63.6142C19.7755 63.2873 19.4873 62.9566 19.2061 62.6212C19.1003 62.5019 18.9944 62.3779 18.8896 62.2548C18.551 61.8443 18.2194 61.4366 17.8949 61.0204C8.92237 49.6117 5.69838 33.8758 12.87 20.9536" fill="#63ABFF"/>
<path d="M31.8025 19.2767C25.9119 27.1785 26.2323 37.7548 30.827 46.1112C31.5979 47.512 32.4637 48.8714 33.4322 50.165C34.314 51.344 35.2926 52.7466 36.4637 53.6936C36.889 54.1295 37.3324 54.5551 37.7859 54.9722C37.9008 55.0821 38.0177 55.1864 38.1346 55.2944C38.574 55.6908 39.0215 56.0826 39.4841 56.4621C39.5032 56.4772 39.5203 56.4941 39.5395 56.5063C39.5445 56.5119 39.5496 56.5138 39.5526 56.5195C40.0646 56.9366 40.5927 57.3396 41.1298 57.7351C41.2487 57.8197 41.3667 57.9089 41.4876 57.9953C42.0258 58.3796 42.574 58.7582 43.1374 59.118C43.1545 59.1292 43.1686 59.1396 43.1848 59.1528C43.4327 59.3115 43.6866 59.4609 43.9376 59.614C44.0585 59.6873 44.1734 59.7653 44.2944 59.8338C44.6955 60.0734 45.1026 60.3073 45.5168 60.5319C45.5753 60.5657 45.6327 60.5929 45.6892 60.6249C46.0459 60.8165 46.4077 61.0053 46.7706 61.1885C46.8965 61.2552 47.0255 61.3135 47.1545 61.3755C47.4055 61.4976 47.6554 61.6216 47.9104 61.7409C47.9477 61.7578 47.987 61.7738 48.0243 61.7889C48.5433 62.0275 49.0674 62.2567 49.6015 62.4737C49.7154 62.5207 49.8333 62.5629 49.9502 62.608C50.3765 62.7771 50.8089 62.9415 51.2422 63.0975C51.4266 63.1623 51.6121 63.2243 51.7965 63.2873C52.1896 63.4235 52.5856 63.5475 52.9837 63.6724C53.1641 63.726 53.3405 63.7805 53.5209 63.8322C54.0873 63.9956 54.6466 64.2032 55.2372 64.2944C85.6489 68.9916 92.6714 47.1644 92.6714 47.1644C86.3413 55.6598 74.0853 59.7155 61.0059 56.5504C60.4254 56.4086 59.853 56.2536 59.2846 56.0864C59.1102 56.0366 58.9389 55.984 58.7665 55.9304C58.3624 55.8083 57.9603 55.6777 57.5612 55.5434C57.3788 55.4823 57.1964 55.4193 57.017 55.3555C56.5796 55.1986 56.1482 55.037 55.7199 54.867C55.603 54.82 55.4851 54.7786 55.3702 54.7298C54.8331 54.5128 54.305 54.2817 53.7829 54.044C53.5148 53.9209 53.2518 53.7913 52.9877 53.6663C52.8356 53.5921 52.6814 53.5188 52.5282 53.4456C52.1896 53.2736 51.853 53.097 51.5204 52.9167C51.4418 52.8744 51.3601 52.8349 51.2805 52.7898C50.8683 52.5653 50.4622 52.3342 50.0611 52.0965C49.9371 52.0223 49.8182 51.9424 49.6942 51.8673C49.4292 51.7066 49.1641 51.5441 48.9041 51.3797C48.3437 51.0199 47.7975 50.6422 47.2603 50.2589C47.1364 50.1678 47.0114 50.0795 46.8905 49.9884C41.1651 45.7749 36.6279 40.0161 34.4702 33.4878C32.2087 26.7162 32.6954 19.1151 36.6128 12.9467" fill="#63ABFF"/>
<path d="M53.0657 12.4074C49.5937 17.1705 49.2521 23.0871 51.6618 28.3481C54.2025 33.9322 59.4088 38.3129 65.4859 40.3891C65.7369 40.4764 65.9868 40.5535 66.2408 40.6342C66.3516 40.6662 66.4615 40.7009 66.5734 40.7319C66.9311 40.8372 67.2869 40.9593 67.6568 41.0241C84.4489 44.0492 89.0042 32.9908 90.2166 31.3637C86.2267 36.7186 79.5217 38.0038 71.295 36.1427C70.6449 35.9943 69.9304 35.7763 69.3045 35.5697C68.5013 35.3028 67.7102 34.9985 66.9402 34.6546C65.4799 33.9998 64.0871 33.206 62.7961 32.2975C55.435 27.0911 50.8606 17.1573 55.6648 9.06763" fill="#63ABFF"/>
</svg>
