<svg width="821" height="500" viewBox="0 0 821 500" fill="none" xmlns="http://www.w3.org/2000/svg">
<path d="M820.6 336.1H808H782.3V361.8V410.7H592H566.3V436.4V500H443.7V456.1V430.4H418H236.2V406.2V380.5H210.5H178.7V361.6V335.9H153H0.899902V170.5H13.0999H38.7999V145V101.7H153H178.7V76V25H321V135.5H323.4H346.5H348.9V58H417.7H443.4V32.3V0H566.1V57.6V83.1H591.8H782.3V145V170.7H808H820.6V336.1Z" fill="white"/>
<path d="M178.7 101.7H38.7998V170.7H178.7V101.7Z" fill="#62AAFF"/>
<path d="M443.5 58H349V135.5H443.5V58Z" fill="#62AAFF"/>
<path d="M236.1 336.1H178.5V380.7H236.1V336.1Z" fill="#62AAFF"/>
<path d="M236.2 170.7V135.4H320.8V24.9H178.5V101.7V170.7H236.2Z" fill="#62AAFF"/>
<path d="M236.2 336.1V380.7V430.4H443.5V336.1H236.2Z" fill="#62AAFF"/>
<path d="M236.2 170.7H443.5V135.4H349H320.8H236.2V170.7Z" fill="#62AAFF"/>
<path d="M782.4 83.1H566.3V170.5H782.4V83.1Z" fill="#62AAFF"/>
<path d="M782.4 336.1H566.3V410.7H782.4V336.1Z" fill="#62AAFF"/>
<path d="M443.5 170.7H566.3V83.1V0H443.5V58V135.4V170.7Z" fill="#62AAFF"/>
<path d="M443.5 336.1V430.4V500H566.3V410.7V336.1H443.5Z" fill="#62AAFF"/>
<path d="M566.3 170.7H443.7H236.2H178.7H38.7999H0.899902V336.1H178.7H236.3H443.7H566.4H782.5H820.8V170.7H782.5H566.3ZM173 302.7H159.5V220.2H159.1L125.2 302.7H116.2L82.2999 220.2H82.0999V302.7H68.3999V202.4H88.5999L120.5 278.4H121.1L152.8 202.4H173V302.7ZM254.4 273.8H200.6C200.6 285.6 211.5 293.3 223.3 293.3C231.2 293.3 236.8 289.4 241.7 283.2L251.3 290.5C244.2 299.7 234.4 304.2 221.5 304.2C200.3 304.2 187 288.8 187 268.9C187 248.8 201.6 233.6 221.7 233.6C245.3 233.6 254.5 251.8 254.5 269L254.4 273.8ZM333.6 302.7H320.8H320.4C320.4 302.7 306.1 302.7 297 302.7C276.2 302.7 262.9 289 262.9 269.1C262.9 249 276.4 233.8 297 233.8C306.6 233.8 315.9 238.1 320.4 245.1H320.8V202.3H333.6V302.7ZM363 302.7H350.2V235.6H363V302.7ZM363 224.7H350.2V211.9H363V224.7ZM434.8 290.5C434.8 295.2 434.8 302.7 434.8 302.7H424.1H423.3C423.3 302.7 410 302.7 399.9 302.7C387.5 302.7 376.6 297.3 376.6 284.3C376.6 267 393.1 261 413.5 261H422.9V258.2C422.9 251.3 417.8 243.9 407 243.9C397.2 243.9 392.6 248 387.9 251.6L380.2 243.7C387.3 236.9 397.5 233.8 406.8 233.8C426.7 233.8 434.9 244.5 434.9 256.1V290.4H434.8V290.5ZM556.8 302.7H543.1V220.2H542.9L509 302.7H500L466 220.2H465.6V302.7H451.9V202.4H472.2L504.1 278.4H504.7L536.4 202.4H556.7V302.7H556.8ZM625 290.5C625 295.2 625 302.7 625 302.7H614.3H613.5C613.5 302.7 600.2 302.7 589.9 302.7C577.5 302.7 566.6 297.3 566.6 284.3C566.6 267 583.1 261 603.5 261H612.9V258.2C612.9 251.3 607.8 243.9 597 243.9C587.2 243.9 582.6 248 577.9 251.6L570.2 243.7C577.3 236.9 587.5 233.8 596.8 233.8C616.7 233.8 624.9 244.5 624.9 256.1V290.5H625ZM681.1 302.1C678.1 303.8 672.1 304.4 669.7 304.4C650 304.4 649.6 292.4 649.6 281.5V246.4H634.8V235.3H649.6V216.5H662.4V235.3H680.6V246.4H662.6V276.8C662.6 284.3 662.6 292.2 672.2 292.2C675.2 292.2 678.8 291.8 681.2 290.1V302.1H681.1ZM753.1 302.7H740.3V262.9C740.3 250.3 733 245.6 724.9 245.6C714.2 245.6 706.1 252.4 706.1 267.9V302.6H693.3V202.4H706.1L706.5 233.9C706.5 233.9 718.3 233.9 728.6 233.9C741.7 233.9 753 241.8 753 259.6V302.7H753.1Z" fill="#62AAFF"/>
<path d="M221.4 244C208.8 244 200.6 254.7 200.6 263.5H240.9C240.6 252.4 234.4 244 221.4 244Z" fill="#62AAFF"/>
<path d="M248.6 271H193.3V263.5C193.3 250.4 204.7 236.5 221.6 236.5C237.5 236.5 248 247 248.4 263.3L248.6 271ZM211.3 256.2H231.6C228.8 251.5 223.7 251.5 221.5 251.5C217.1 251.5 213.5 253.4 211.3 256.2Z" fill="#62AAFF"/>
<path d="M389.3 283.2C389.3 290.9 394.9 294.1 403.7 294.1C418 294.1 422.8 283.6 422.8 274.6V270.3H416C404.1 270.4 389.3 272.5 389.3 283.2Z" fill="#62AAFF"/>
<path d="M403.7 301.6C387.6 301.6 381.8 292 381.8 283.2C381.8 275.5 386.3 262.8 416.1 262.8H430.4V274.4C430.3 288.1 422.1 301.6 403.7 301.6ZM415.2 277.8C404.3 278 396.8 280.1 396.8 283.2C396.8 284.5 396.8 286.6 403.7 286.6C411.8 286.8 414.4 282.1 415.2 277.8Z" fill="#62AAFF"/>
<path d="M298.7 245.7C285 245.7 276.6 255.5 276.6 269.1C276.6 282.8 285 292.5 298.7 292.5C312.2 292.5 320.8 282.7 320.8 269.1C320.8 255.4 312.4 245.7 298.7 245.7Z" fill="#62AAFF"/>
<path d="M298.7 299.9C281.3 299.9 269.1 287.1 269.1 269.1C269.1 250.9 281.3 238.2 298.7 238.2C316.1 238.2 328.3 251 328.3 269.1C328.3 287.3 316.1 299.9 298.7 299.9ZM298.7 253.2C287.8 253.2 284.1 261.5 284.1 269.1C284.1 276.8 288 285 298.7 285C309.6 285 313.3 276.7 313.3 269.1C313.3 261.4 309.6 253.2 298.7 253.2Z" fill="#62AAFF"/>
<path d="M579.6 283.2C579.6 290.9 585.2 294.1 594 294.1C608.3 294.1 613.1 283.6 613.1 274.6V270.3H606.3C594.3 270.4 579.6 272.5 579.6 283.2Z" fill="#62AAFF"/>
<path d="M594.1 301.6C578 301.6 572.2 292 572.2 283.2C572.2 275.5 576.7 262.8 606.5 262.8H620.8V274.4C620.7 288.1 612.5 301.6 594.1 301.6ZM605.5 277.8C594.6 278 587.1 280.1 587.1 283.2C587.1 284.5 587.1 286.6 594 286.6C602 286.8 604.6 282.1 605.5 277.8Z" fill="#62AAFF"/>
<path d="M121.1 278.3H120.5L88.5999 202.4H68.3999V302.7H82.0999V220.2H82.2999L116.2 302.7H125.2L159.2 220.2H159.3V302.7H173V202.4H152.8L121.1 278.3Z" fill="white"/>
<path d="M221.8 233.9C201.7 233.9 187.1 249.1 187.1 269.2C187.1 289.3 200.4 304.5 221.6 304.5C234.5 304.5 244.3 300 251.4 290.8L241.8 283.5C236.9 289.5 231.1 293.6 223.4 293.6C211.6 293.6 200.7 285.7 200.7 274.1H254.5V269.6C254.4 251.9 245.4 233.9 221.8 233.9ZM200.6 263.5C200.6 254.5 208.9 244 221.4 244C234.3 244 240.5 252.4 240.9 263.5H200.6Z" fill="white"/>
<path d="M320.8 245.1H320.4C315.9 238.2 306.7 233.8 297 233.8C276.4 233.8 262.9 249 262.9 269.1C262.9 289 276.2 302.7 297 302.7C306 302.7 320.4 302.7 320.4 302.7H320.8H333.6V202.4H320.8V245.1ZM298.7 292.4C285 292.4 276.6 282.6 276.6 269C276.6 255.3 285 245.6 298.7 245.6C312.2 245.6 320.8 255.4 320.8 269C320.8 282.6 312.4 292.4 298.7 292.4Z" fill="white"/>
<path d="M363.1 235.6H350.3V302.7H363.1V235.6Z" fill="white"/>
<path d="M406.7 233.9C397.3 233.9 387.2 237.1 380.1 243.8L387.8 251.7C392.5 248.1 397.2 244 406.9 244C417.8 244 422.8 251.3 422.8 258.3V261.1H413.4C393 261.1 376.5 267.1 376.5 284.4C376.5 297.3 387.2 302.8 399.8 302.8C409.9 302.8 423.2 302.8 423.2 302.8H424H434.7C434.7 302.8 434.7 295.3 434.7 290.6V256.3C434.8 244.6 426.6 233.9 406.7 233.9ZM422.8 274.6C422.8 283.6 417.9 294.1 403.7 294.1C394.9 294.1 389.3 290.9 389.3 283.2C389.3 272.5 404.1 270.3 416.1 270.3H422.9L422.8 274.6Z" fill="white"/>
<path d="M597.1 233.9C587.7 233.9 577.6 237.1 570.5 243.8L578.2 251.7C582.9 248.1 587.6 244 597.3 244C608.2 244 613.2 251.3 613.2 258.3V261.1H603.8C583.4 261.1 566.9 267.1 566.9 284.4C566.9 297.3 577.6 302.8 590.2 302.8C600.3 302.8 613.8 302.8 613.8 302.8H614.6H625.3C625.3 302.8 625.3 295.3 625.3 290.6V256.3C625 244.6 617 233.9 597.1 233.9ZM613.2 274.6C613.2 283.6 608.3 294.1 594.1 294.1C585.3 294.1 579.7 290.9 579.7 283.2C579.7 272.5 594.5 270.3 606.5 270.3H613.3V274.6H613.2Z" fill="white"/>
<path d="M504.8 278.3H504.2L472.4 202.4H452.1V302.7H465.6V220.2H466L499.9 302.7H508.9L542.9 220.2H543.1V302.7H556.8V202.4H536.5L504.8 278.3Z" fill="white"/>
<path d="M662.5 277V246.6H680.7V235.5H662.5V216.7H649.7V235.5H635V246.6H649.8V281.7C649.8 292.4 650.2 304.6 669.9 304.6C672.5 304.6 678.3 304 681.3 302.3V290.7C678.7 292.2 675.1 292.8 672.3 292.8C662.5 292.4 662.5 284.5 662.5 277Z" fill="white"/>
<path d="M728.7 233.9C718.4 233.9 706.6 233.9 706.6 233.9L706.2 202.4H693.4V302.7H706.2V268C706.2 252.4 714.3 245.7 725 245.7C733.1 245.7 740.4 250.4 740.4 263V302.8H753.2V259.5C753.1 241.6 741.9 233.9 728.7 233.9Z" fill="white"/>
<path d="M363.1 211.9H350.3V224.7H363.1V211.9Z" fill="white"/>
</svg>
