<svg width="193" height="44" viewBox="0 0 193 44" fill="none" xmlns="http://www.w3.org/2000/svg">
<path d="M0.0577985 30.3285C-0.102497 30.7475 0.116086 30.8349 0.16709 30.9077C0.647976 31.2575 1.13615 31.5089 1.62797 31.7894C4.23641 33.1737 6.69913 33.5781 9.27478 33.5781C14.5208 33.5781 17.7777 30.7875 17.7777 26.2956V26.2082C17.7777 22.0551 14.1019 20.5468 10.6519 19.4576L10.2038 19.3118C7.60261 18.4666 5.35848 17.738 5.35848 16.0258V15.9347C5.35848 14.4702 6.66998 13.3918 8.70282 13.3918C10.9615 13.3918 13.6428 14.1423 15.3696 15.0968C15.3696 15.0968 15.876 15.4247 16.0618 14.9329C16.1638 14.6706 17.0382 12.3171 17.1293 12.0621C17.2276 11.7852 17.0528 11.5812 16.8742 11.4719C14.9033 10.2734 12.1783 9.45367 9.35857 9.45367L8.83397 9.45731C4.0324 9.45731 0.680765 12.3572 0.680765 16.5139V16.6014C0.680765 20.984 4.37849 22.4048 7.84305 23.3957L8.40045 23.5669C10.9251 24.3429 13.1 25.0096 13.1 26.7874V26.8749C13.1 28.4997 11.6865 29.7092 9.40594 29.7092C8.52067 29.7092 5.69728 29.691 2.64803 27.7638C2.28008 27.5488 2.06513 27.3922 1.78097 27.221C1.63161 27.1262 1.25637 26.9623 1.09243 27.4578L0.0577985 30.3285Z" fill="#63ABFF"/>
<path d="M76.8576 30.3285C76.6973 30.7475 76.9159 30.8349 76.9669 30.9077C77.4478 31.2575 77.936 31.5089 78.4278 31.7894C81.0362 33.1737 83.4989 33.5781 86.0746 33.5781C91.3206 33.5781 94.5775 30.7875 94.5775 26.2956V26.2082C94.5775 22.0551 90.9017 20.5468 87.4517 19.4576L87.0036 19.3118C84.4024 18.4666 82.1583 17.738 82.1583 16.0258V15.9347C82.1583 14.4702 83.4698 13.3918 85.5026 13.3918C87.7613 13.3918 90.4426 14.1423 92.1695 15.0968C92.1695 15.0968 92.6758 15.4247 92.8616 14.9329C92.9636 14.6706 93.838 12.3171 93.9291 12.0621C94.0274 11.7852 93.8526 11.5812 93.674 11.4719C91.7031 10.2734 88.9781 9.45367 86.1584 9.45367L85.6338 9.45731C80.8322 9.45731 77.4806 12.3572 77.4806 16.5139V16.6014C77.4806 20.984 81.1783 22.4048 84.6429 23.3957L85.2002 23.5669C87.7249 24.3429 89.9035 25.0096 89.9035 26.7874V26.8749C89.9035 28.4997 88.4863 29.7092 86.2057 29.7092C85.3205 29.7092 82.4971 29.691 79.4478 27.7638C79.0799 27.5488 78.8613 27.3995 78.5844 27.221C78.4897 27.159 78.0452 26.9878 77.8922 27.4578L76.8576 30.3285Z" fill="#63ABFF"/>
<path d="M129.287 21.5298C129.287 24.069 128.813 26.0691 127.88 27.4826C126.959 28.8815 125.563 29.5628 123.618 29.5628C121.669 29.5628 120.281 28.8852 119.374 27.4826C118.456 26.0727 117.989 24.069 117.989 21.5298C117.989 18.9942 118.456 16.9978 119.374 15.5989C120.281 14.2145 121.669 13.5405 123.618 13.5405C125.563 13.5405 126.959 14.2145 127.884 15.5989C128.813 16.9978 129.287 18.9942 129.287 21.5298ZM133.666 16.8229C133.236 15.3693 132.565 14.087 131.673 13.0196C130.78 11.9485 129.651 11.0887 128.31 10.4621C126.973 9.83915 125.392 9.52221 123.618 9.52221C121.84 9.52221 120.259 9.83915 118.922 10.4621C117.581 11.0887 116.452 11.9485 115.556 13.0196C114.667 14.0906 113.997 15.373 113.563 16.8229C113.137 18.2692 112.922 19.8503 112.922 21.5298C112.922 23.2092 113.137 24.794 113.563 26.2366C113.997 27.6866 114.663 28.969 115.559 30.04C116.452 31.1111 117.585 31.9672 118.922 32.5756C120.263 33.184 121.84 33.4937 123.618 33.4937C125.392 33.4937 126.97 33.184 128.31 32.5756C129.647 31.9672 130.78 31.1111 131.673 30.04C132.565 28.9726 133.236 27.6902 133.666 26.2366C134.095 24.7903 134.31 23.2056 134.31 21.5298C134.31 19.854 134.095 18.2692 133.666 16.8229Z" fill="#63ABFF"/>
<path d="M169.625 28.8849C169.479 28.4586 169.068 28.6189 169.068 28.6189C168.43 28.863 167.753 29.0889 167.031 29.2018C166.299 29.3147 165.494 29.373 164.63 29.373C162.51 29.373 160.827 28.7428 159.621 27.4968C158.412 26.2509 157.734 24.2363 157.741 21.5113C157.749 19.0303 158.346 17.1651 159.421 15.7443C160.488 14.3308 162.113 13.6058 164.281 13.6058C166.088 13.6058 167.465 13.8135 168.907 14.2688C168.907 14.2688 169.253 14.4182 169.417 13.9665C169.8 12.9027 170.084 12.1413 170.492 10.9718C170.609 10.6403 170.325 10.4982 170.223 10.4582C169.654 10.2359 168.314 9.87528 167.301 9.72227C166.354 9.57655 165.246 9.50005 164.015 9.50005C162.175 9.50005 160.536 9.81335 159.133 10.44C157.734 11.0629 156.546 11.9227 155.606 12.9938C154.667 14.0648 153.953 15.3472 153.475 16.7971C153.002 18.2434 152.761 19.8318 152.761 21.5113C152.761 25.1434 153.741 28.0797 155.676 30.2292C157.614 32.3859 160.525 33.4824 164.321 33.4824C166.565 33.4824 168.867 33.027 170.521 32.3749C170.521 32.3749 170.838 32.2219 170.7 31.854L169.625 28.8849Z" fill="#63ABFF"/>
<path d="M177.287 19.0974C177.495 17.6876 177.884 16.5145 178.485 15.6001C179.393 14.2121 180.777 13.4507 182.722 13.4507C184.668 13.4507 185.954 14.2157 186.875 15.6001C187.488 16.5145 187.753 17.7386 187.859 19.0974H177.287ZM192.03 15.9972C191.659 14.5946 190.737 13.1774 190.132 12.529C189.178 11.5016 188.245 10.7839 187.32 10.3832C186.11 9.86587 184.66 9.52342 183.072 9.52342C181.221 9.52342 179.542 9.83307 178.179 10.4743C176.813 11.1154 175.666 11.9898 174.766 13.0791C173.866 14.1647 173.188 15.458 172.759 16.9261C172.325 18.387 172.106 19.979 172.106 21.6585C172.106 23.3671 172.332 24.9591 172.78 26.3909C173.232 27.8335 173.953 29.105 174.93 30.1578C175.903 31.2179 177.156 32.0486 178.657 32.6278C180.147 33.2034 181.957 33.5021 184.038 33.4985C188.318 33.4839 190.573 32.5294 191.502 32.0158C191.666 31.9247 191.823 31.7644 191.626 31.3054L190.657 28.5913C190.511 28.1869 190.1 28.3363 190.1 28.3363C189.039 28.7297 187.531 29.4365 184.016 29.4292C181.717 29.4255 180.012 28.7479 178.945 27.6878C177.848 26.6022 177.312 25.0065 177.218 22.7551L192.041 22.7696C192.041 22.7696 192.431 22.7624 192.471 22.3835C192.486 22.2232 192.981 19.3379 192.03 15.9972Z" fill="#63ABFF"/>
<path d="M58.5706 19.0974C58.7819 17.6876 59.1681 16.5145 59.7692 15.6001C60.6763 14.2121 62.0607 13.4507 64.0061 13.4507C65.9515 13.4507 67.2375 14.2157 68.1628 15.6001C68.7712 16.5145 69.0372 17.7386 69.1428 19.0974H58.5706ZM73.3105 15.9972C72.9389 14.5946 72.0208 13.1774 71.4161 12.529C70.4616 11.5016 69.529 10.7839 68.6036 10.3832C67.3941 9.86587 65.9442 9.52342 64.3558 9.52342C62.5088 9.52342 60.8257 9.83307 59.4632 10.4743C58.097 11.1154 56.9494 11.9898 56.0496 13.0791C55.1497 14.1647 54.4721 15.458 54.0423 16.9261C53.6124 18.387 53.3901 19.979 53.3901 21.6585C53.3901 23.3671 53.616 24.9591 54.0641 26.3909C54.5159 27.8335 55.2372 29.105 56.2135 30.1578C57.1862 31.2179 58.4394 32.0486 59.9404 32.6278C61.4304 33.2034 63.241 33.5021 65.3212 33.4985C69.6018 33.4839 71.8569 32.5294 72.7859 32.0158C72.9498 31.9247 73.1065 31.7644 72.9097 31.3054L71.9443 28.5913C71.795 28.1869 71.3833 28.3363 71.3833 28.3363C70.3232 28.7297 68.8186 29.4365 65.2957 29.4292C63.0006 29.4255 61.2956 28.7479 60.2282 27.6878C59.1316 26.6022 58.5961 25.0065 58.5014 22.7551L73.3251 22.7696C73.3251 22.7696 73.7149 22.7624 73.7549 22.3835C73.7695 22.2232 74.265 19.3379 73.3105 15.9972Z" fill="#63ABFF"/>
<path d="M26.5294 28.8036C25.9502 28.3409 25.87 28.2243 25.6733 27.9256C25.3818 27.4702 25.2325 26.8217 25.2325 25.9984C25.2325 24.6942 25.6623 23.7579 26.5549 23.1276C26.544 23.1313 27.83 22.0165 30.8537 22.0566C32.9776 22.0857 34.8757 22.399 34.8757 22.399V29.1387H34.8793C34.8793 29.1387 32.9959 29.5431 30.8756 29.6706C27.8591 29.8528 26.5185 28.7999 26.5294 28.8036ZM32.4275 18.388C31.8264 18.3443 31.0468 18.3188 30.1142 18.3188C28.8428 18.3188 27.615 18.4791 26.4638 18.7887C25.3053 19.0984 24.2634 19.5829 23.3672 20.2241C22.4674 20.8689 21.7424 21.6923 21.2178 22.6686C20.6932 23.645 20.4272 24.7962 20.4272 26.0858C20.4272 27.3973 20.6531 28.5376 21.1049 29.4702C21.5566 30.4065 22.2087 31.1861 23.0393 31.7872C23.8627 32.3884 24.8791 32.8292 26.0594 33.0951C27.2216 33.3611 28.5404 33.4958 29.983 33.4958C31.5022 33.4958 33.0177 33.372 34.4859 33.1206C35.9395 32.8729 37.7246 32.5122 38.22 32.3993C38.7118 32.2827 39.2583 32.1333 39.2583 32.1333C39.6263 32.0423 39.5971 31.6488 39.5971 31.6488L39.5898 18.0929C39.5898 15.1202 38.7956 12.9161 37.2328 11.5499C35.6772 10.1874 33.3857 9.4989 30.4239 9.4989C29.3127 9.4989 27.524 9.65191 26.4529 9.86685C26.4529 9.86685 23.2142 10.4935 21.8808 11.5354C21.8808 11.5354 21.5894 11.7175 21.7497 12.1256L22.7989 14.9453C22.93 15.3096 23.2834 15.1857 23.2834 15.1857C23.2834 15.1857 23.3964 15.142 23.5275 15.0655C26.38 13.5136 29.9867 13.5609 29.9867 13.5609C31.5896 13.5609 32.821 13.8815 33.6516 14.5191C34.4604 15.1384 34.872 16.0747 34.872 18.0492V18.6758C33.597 18.4937 32.4275 18.388 32.4275 18.388Z" fill="#63ABFF"/>
<path d="M151.987 10.7501C152.1 10.4149 151.863 10.2546 151.765 10.2182C151.513 10.1198 150.253 9.8539 149.28 9.79197C147.418 9.67903 146.384 9.99234 145.458 10.4076C144.54 10.823 143.52 11.4933 142.952 12.2547V10.4514C142.952 10.2 142.774 9.99963 142.526 9.99963H138.726C138.478 9.99963 138.3 10.2 138.3 10.4514V32.5612C138.3 32.8089 138.504 33.0129 138.752 33.0129H142.646C142.894 33.0129 143.094 32.8089 143.094 32.5612V21.5154C143.094 20.0327 143.258 18.5536 143.586 17.6246C143.906 16.7065 144.344 15.9706 144.883 15.4424C145.426 14.9178 146.041 14.5498 146.715 14.3422C147.404 14.1309 148.165 14.0617 148.704 14.0617C149.48 14.0617 150.333 14.262 150.333 14.262C150.617 14.2948 150.777 14.1199 150.872 13.8613C151.127 13.1837 151.848 11.1545 151.987 10.7501Z" fill="#63ABFF"/>
<path d="M115.431 0.502689C114.958 0.356966 114.528 0.258607 113.967 0.152958C113.399 0.0509509 112.721 -5.72205e-05 111.952 -5.72205e-05C109.271 -5.72205e-05 107.158 0.757707 105.675 2.25137C104.2 3.73774 103.198 6.00009 102.695 8.97648L102.513 9.97833H99.1468C99.1468 9.97833 98.7388 9.96376 98.6514 10.4082L98.1013 13.4939C98.0612 13.7853 98.1887 13.9711 98.5822 13.9711H101.857L98.5348 32.5217C98.2761 34.0154 97.9774 35.2431 97.6459 36.1757C97.3217 37.0938 97.0047 37.7823 96.6113 38.285C96.2324 38.7659 95.8754 39.1229 95.256 39.3306C94.746 39.5018 94.1558 39.582 93.511 39.582C93.154 39.582 92.6767 39.5237 92.3234 39.4508C91.9736 39.3816 91.7878 39.3051 91.5219 39.1922C91.5219 39.1922 91.1394 39.0464 90.9864 39.429C90.8661 39.7459 89.9918 42.1467 89.8861 42.4418C89.7841 42.7369 89.9299 42.9664 90.1157 43.0356C90.5528 43.1886 90.8771 43.2906 91.4709 43.4327C92.2942 43.6258 92.99 43.6367 93.6421 43.6367C95.0047 43.6367 96.2506 43.4436 97.2816 43.072C98.3162 42.6968 99.2197 42.0447 100.021 41.1631C100.885 40.2086 101.427 39.2104 101.945 37.8442C102.458 36.4963 102.899 34.8205 103.249 32.8678L106.59 13.9711H111.471C111.471 13.9711 111.883 13.9857 111.967 13.5376L112.521 10.4556C112.557 10.1605 112.433 9.97833 112.036 9.97833H107.296C107.322 9.87268 107.537 8.20416 108.08 6.63399C108.313 5.96731 108.75 5.42448 109.118 5.05289C109.482 4.68858 109.901 4.42993 110.36 4.28056C110.83 4.12755 111.366 4.05469 111.952 4.05469C112.397 4.05469 112.838 4.10569 113.169 4.17491C113.628 4.27327 113.807 4.32428 113.927 4.36071C114.411 4.50643 114.477 4.36435 114.572 4.13119L115.705 1.02001C115.821 0.684845 115.533 0.542763 115.431 0.502689Z" fill="#63ABFF"/>
<path d="M49.2094 32.5622C49.2094 32.8099 49.0309 33.0103 48.7832 33.0103H44.8523C44.6046 33.0103 44.4297 32.8099 44.4297 32.5622V0.925671C44.4297 0.677941 44.6046 0.477573 44.8523 0.477573H48.7832C49.0309 0.477573 49.2094 0.677941 49.2094 0.925671V32.5622Z" fill="#63ABFF"/>
</svg>
