<svg width="2501" height="600" viewBox="0 0 2501 600" fill="none" xmlns="http://www.w3.org/2000/svg">
<path d="M186.544 66.2405L44.3425 130.461C58.104 161.042 70.3364 188.565 84.0979 216.088C113.15 203.855 140.673 191.623 171.254 177.861C188.073 248.198 204.893 317.005 221.713 387.341C233.945 382.754 244.648 379.696 255.352 376.638C300.108 361.142 348.311 358.493 394.495 368.993C407.934 370.662 420.546 376.384 430.653 385.398C440.759 394.412 447.881 406.29 451.07 419.452C454.31 435.844 451.018 452.853 441.896 466.852C457.187 509.666 438.838 546.363 397.554 569.299C362.904 587.21 324.873 597.63 285.933 599.88V564.711C327.217 557.066 370.031 552.479 400.612 520.369C404.248 515.098 407.323 509.461 409.786 503.549C382.476 514.01 354.348 522.193 325.688 528.014C299.844 531.579 273.67 532.093 247.706 529.543C239.927 529.045 232.499 526.123 226.465 521.186C220.432 516.25 216.096 509.547 214.067 502.02C212.552 493.803 213.483 485.322 216.745 477.629C220.007 469.937 225.456 463.371 232.416 458.748C254.081 444.728 278.66 435.838 304.281 432.754C334.31 427.4 365.165 428.969 394.495 437.341C390.429 446.065 383.946 453.438 375.816 458.588C367.685 463.737 358.248 466.446 348.624 466.393C322.12 465.961 295.74 470.099 270.642 478.626C264.526 481.684 256.881 484.742 249.235 489.329C266.144 494.068 283.875 495.111 301.223 492.387C329.872 490.05 357.6 481.156 382.263 466.393C391.233 461.472 399.052 454.696 405.199 446.516C408.064 443.762 410.159 440.306 411.275 436.492C412.392 432.678 412.491 428.638 411.564 424.774C410.636 420.91 408.714 417.355 405.988 414.463C403.262 411.572 399.827 409.443 396.024 408.289C375.716 399.929 353.641 396.775 331.804 399.115C287.721 401.408 244.785 413.975 206.422 435.812C202.979 437.618 199.401 439.152 195.719 440.4C178.899 368.534 162.08 298.198 143.731 224.803C117.737 238.565 91.7431 250.797 65.7492 264.559C44.3425 217.617 21.4067 168.228 0 119.757C63.9384 78.8545 133.469 47.437 206.422 26.4851C209.423 38.3082 214.937 49.3454 222.589 58.8446C230.241 68.3437 239.851 76.0817 250.765 81.531C265.587 88.3909 282.302 90.0084 298.165 86.1182C334.862 76.9439 354.74 49.4209 357.798 2.02032C439.046 -4.08478 520.741 3.67104 599.388 24.9561L567.278 180.919C535.168 176.332 504.587 173.274 470.948 168.687C467.89 234.436 464.832 298.656 461.774 362.877C451.07 355.231 440.367 347.586 428.135 338.412C431.193 271.133 434.251 202.326 437.309 131.99C472.477 135.048 506.116 136.577 539.755 139.635C545.872 110.583 551.988 80.002 558.104 49.4209C502.808 37.7746 446.416 32.1354 389.908 32.6014C376.147 80.002 348.624 110.583 299.694 119.757C255.352 127.403 217.125 109.054 186.544 66.2405V66.2405ZM2454.13 223.733V257.372C2438.84 252.785 2444.19 251.256 2445.72 251.256C2435.22 241.021 2422.44 233.43 2408.42 229.107C2394.41 224.783 2379.57 223.853 2365.13 226.392C2350.69 228.931 2337.06 234.866 2325.36 243.709C2313.67 252.551 2304.24 264.048 2297.86 277.25C2283.2 307.16 2279.73 341.332 2288.07 373.58C2291.06 390.598 2298.74 406.446 2310.23 419.346C2321.73 432.246 2336.59 441.687 2353.15 446.61C2369.71 451.533 2387.32 451.742 2404 447.215C2420.67 442.688 2435.75 433.603 2447.55 420.981C2447.55 419.452 2438.84 417.922 2454.13 416.393V440.858C2454.27 455.255 2448.88 469.157 2439.06 479.687C2429.24 490.217 2415.75 496.571 2401.38 497.433C2386.01 500.214 2370.2 499.157 2355.34 494.356C2340.48 489.554 2327.04 481.157 2316.21 469.91C2307.03 482.143 2300.92 494.375 2292.66 505.078L2298.47 511.195C2314.05 522.8 2331.84 531.094 2350.75 535.564C2369.66 540.034 2389.28 540.587 2408.41 537.189C2469.57 529.543 2500.15 495.904 2500.15 434.742V223.733H2454.28H2454.13ZM2437.31 391.929C2428.13 399.707 2416.93 404.702 2405.01 406.328C2393.09 407.953 2380.95 406.14 2370.03 401.103C2359.33 396.081 2350.31 388.064 2344.07 378.023C2337.83 367.983 2334.63 356.348 2334.86 344.528C2333.8 334.825 2334.32 325.014 2336.39 315.476C2337.76 304.12 2342.6 293.465 2350.27 284.977C2357.94 276.489 2368.05 270.585 2379.2 268.075C2391.42 264.961 2404.25 265.315 2416.27 269.097C2428.29 272.878 2439.02 279.938 2447.25 289.482C2451.01 293.176 2453.43 298.019 2454.13 303.244V336.424C2452.6 345.535 2452.6 354.836 2454.13 363.947C2454.25 369.724 2452.74 375.418 2449.76 380.37C2446.79 385.322 2442.47 389.33 2437.31 391.929V391.929ZM1714.07 284.895C1709.4 271.334 1701.61 259.057 1691.34 249.05C1681.06 239.042 1668.59 231.583 1654.91 227.271C1641.23 222.96 1626.73 221.915 1612.57 224.221C1598.42 226.528 1585 232.121 1573.39 240.552C1567.12 243.293 1561.42 247.182 1556.57 252.02C1555.17 242.661 1554.66 233.189 1555.05 223.733H1506.12V529.543H1551.99V422.51H1553.52C1555.11 422.44 1556.68 422.94 1557.94 423.92C1559.2 424.901 1560.07 426.298 1560.4 427.861C1571.21 439.039 1584.69 447.283 1599.57 451.82C1614.45 456.356 1630.23 457.036 1645.45 453.795C1660.66 450.553 1674.8 443.498 1686.53 433.291C1698.27 423.084 1707.22 410.061 1712.54 395.445C1727.57 360.23 1728.12 320.512 1714.07 284.895V284.895ZM1669.72 364.406C1667.77 375.775 1662.54 386.325 1654.65 394.749C1646.77 403.173 1636.6 409.103 1625.38 411.806C1613.74 414.184 1601.68 413.458 1590.41 409.7C1579.13 405.943 1569.05 399.287 1561.16 390.4C1557.21 386.295 1555.01 380.808 1555.05 375.109C1555.05 352.173 1553.52 327.708 1555.05 304.773C1555.31 298.386 1558.06 292.354 1562.69 287.953C1570.88 278.669 1581.7 272.09 1593.72 269.086C1605.73 266.083 1618.37 266.797 1629.97 271.133C1655.96 278.779 1666.67 298.656 1671.25 324.65C1672.67 330.137 1673.19 335.818 1672.78 341.47C1672.32 349.179 1671.3 356.845 1669.72 364.406V364.406ZM992.355 332.296C987.768 289.482 970.948 252.785 931.193 234.436C907.158 223.287 879.932 221.089 854.421 228.238C828.909 235.387 806.79 251.413 792.049 273.427C761.468 320.828 769.113 390.705 808.869 426.332C851.682 464.559 931.193 465.935 974.006 427.708C974.437 425.818 975.52 424.14 977.064 422.968C969.419 412.265 963.303 403.091 955.657 392.387C923.547 413.794 891.437 427.555 857.798 409.207C849.052 404.264 841.503 397.453 835.689 389.261C829.875 381.068 825.938 371.694 824.159 361.806H992.355C993.175 351.986 993.175 342.115 992.355 332.296V332.296ZM822.63 315.476C823.789 300.063 830.741 285.66 842.088 275.164C853.435 264.668 868.335 258.858 883.792 258.901C891.423 258.698 899.019 260 906.147 262.733C913.274 265.467 919.793 269.578 925.331 274.832C930.869 280.086 935.318 286.38 938.422 293.354C941.527 300.328 943.227 307.845 943.425 315.476H822.63ZM1244.65 333.825C1240.06 287.953 1221.71 248.198 1175.84 231.378C1161.68 225.888 1146.53 223.389 1131.35 224.038C1116.18 224.687 1101.3 228.469 1087.65 235.147C1074.01 241.826 1061.9 251.255 1052.07 262.843C1042.25 274.431 1034.93 287.926 1030.58 302.479C1010.7 369.757 1045.87 435.201 1110.09 450.491C1139.91 456.613 1170.89 453.355 1198.78 441.164C1209.8 435.576 1220.52 429.4 1230.89 422.663C1221.71 410.43 1215.6 399.727 1207.95 390.552C1166.67 422.663 1129.97 421.133 1107.03 407.372C1098.84 402.484 1091.85 395.83 1086.56 387.894C1081.27 379.958 1077.81 370.941 1076.45 361.5H1244.65C1245.46 352.293 1245.46 343.032 1244.65 333.825V333.825ZM1076.45 315.476C1078.13 299.719 1085.66 285.166 1097.55 274.691C1109.44 264.216 1124.83 258.582 1140.67 258.901C1148.11 258.881 1155.47 260.33 1162.35 263.166C1169.22 266.002 1175.46 270.169 1180.72 275.426C1185.98 280.684 1190.15 286.929 1192.98 293.802C1195.82 300.675 1197.27 308.041 1197.25 315.476H1076.45ZM2085.63 257.372C2100.7 241.058 2120.47 229.836 2142.2 225.262C2155.35 223.197 2168.69 222.684 2181.96 223.733C2197.09 225.32 2211.01 232.769 2220.73 244.485C2230.44 256.201 2235.19 271.254 2233.95 286.424C2235.47 338.412 2233.95 390.4 2233.95 442.387C2233.96 444.043 2233.42 445.656 2232.42 446.974H2185.02V312.418C2185.02 277.25 2166.67 260.43 2129.97 266.546C2114.24 268.741 2099.99 276.966 2090.21 289.482C2087.13 293.396 2085.51 298.262 2085.63 303.244V445.445H2038.23V226.791H2085.63V257.372V257.372ZM1452.6 255.843C1446.48 266.546 1440.37 277.25 1432.72 289.482C1423.7 280.591 1412.92 273.685 1401.07 269.208C1389.22 264.732 1376.56 262.783 1363.91 263.488C1353.42 264.285 1343.36 267.992 1334.86 274.192C1331.91 275.707 1329.49 278.075 1327.9 280.988C1326.32 283.901 1325.65 287.224 1325.98 290.524C1326.31 293.823 1327.62 296.947 1329.75 299.489C1331.88 302.03 1334.73 303.871 1337.92 304.773C1349.94 309.042 1362.19 312.616 1374.62 315.476C1391.44 320.063 1408.26 324.65 1425.08 330.766C1434.96 335.486 1443.4 342.774 1449.51 351.87C1455.62 360.966 1459.17 371.536 1459.79 382.474C1460.42 393.412 1458.09 404.318 1453.06 414.05C1448.03 423.783 1440.48 431.985 1431.19 437.8C1389.91 463.794 1311.93 456.149 1276.76 422.51C1275.39 421.244 1274.34 419.672 1273.7 417.922C1279.82 407.219 1287.46 396.516 1292.05 387.341C1311.49 396.532 1331.39 404.698 1351.68 411.806C1363.81 414.102 1376.25 414.102 1388.38 411.806C1394.66 412.009 1400.77 409.706 1405.36 405.405C1409.95 401.104 1412.64 395.156 1412.84 388.87C1413.05 382.585 1410.74 376.476 1406.44 371.888C1402.14 367.3 1396.19 364.608 1389.91 364.406C1374.62 359.818 1357.8 356.76 1340.98 352.173L1313.46 342.999C1266.06 323.121 1270.64 265.017 1302.75 240.552C1342.51 213.029 1417.43 219.146 1452.6 255.843V255.843ZM649.847 271.133H614.679V228.32H649.847V168.228H698.777V226.332H743.119V269.146H700.306C700.306 273.733 698.777 276.791 698.777 279.849V388.412C698.678 392.231 699.582 396.009 701.397 399.37C703.213 402.73 705.878 405.557 709.126 407.568C712.374 409.578 716.092 410.703 719.91 410.83C723.728 410.956 727.513 410.081 730.887 408.289C734.33 406.484 737.908 404.95 741.59 403.702C744.648 415.935 749.235 426.638 752.294 438.87C742.287 446.163 730.673 450.943 718.432 452.805C706.19 454.668 693.68 453.56 681.957 449.574C672.428 446.819 664.093 440.96 658.275 432.926C652.457 424.892 649.491 415.144 649.847 405.231C648.318 367.005 649.847 327.25 648.318 289.023C649.724 283.015 650.239 276.833 649.847 270.675V271.133ZM1770.64 229.39H1818.04V259.971C1835.92 239.181 1861.1 226.045 1888.38 223.274V270.675C1875.13 268.827 1861.63 270.545 1849.27 275.651C1836.9 280.758 1826.13 289.068 1818.04 299.727V448.045H1770.64V229.39ZM1928.13 229.849H1975.54V448.503H1928.13V229.849ZM1981.65 171.745C1981.65 179.856 1978.43 187.634 1972.69 193.369C1966.96 199.104 1959.18 202.326 1951.07 202.326C1943.48 201.955 1936.31 198.776 1930.94 193.406C1925.57 188.036 1922.39 180.859 1922.02 173.274C1922.02 165.164 1925.24 157.385 1930.98 151.65C1936.71 145.915 1944.49 142.693 1952.6 142.693C1960.18 143.064 1967.36 146.244 1972.73 151.614C1978.1 156.984 1981.28 164.16 1981.65 171.745V171.745Z" fill="#63ABFF"/>
</svg>
